<mxfile host="app.diagrams.net" modified="2023-03-23T12:25:57.048Z" agent="5.0 (Windows)" etag="G-Ad4mnvnJsrrQAStxtR" version="21.0.10" type="github">
  <diagram id="C5RBs43oDa-KdzZeNtuy" name="Page-1">
    <mxGraphModel dx="2261" dy="782" grid="1" gridSize="10" guides="1" tooltips="1" connect="1" arrows="1" fold="1" page="1" pageScale="1" pageWidth="827" pageHeight="1169" math="0" shadow="0">
      <root>
        <mxCell id="WIyWlLk6GJQsqaUBKTNV-0" />
        <mxCell id="WIyWlLk6GJQsqaUBKTNV-1" parent="WIyWlLk6GJQsqaUBKTNV-0" />
        <mxCell id="ExjQrbDAAfsEgMbyEyPx-0" style="edgeStyle=orthogonalEdgeStyle;rounded=0;orthogonalLoop=1;jettySize=auto;html=1;exitX=0.5;exitY=1;exitDx=0;exitDy=0;" edge="1" source="ExjQrbDAAfsEgMbyEyPx-1" parent="WIyWlLk6GJQsqaUBKTNV-1">
          <mxGeometry relative="1" as="geometry">
            <mxPoint x="30" y="260" as="targetPoint" />
          </mxGeometry>
        </mxCell>
        <mxCell id="ExjQrbDAAfsEgMbyEyPx-1" value="START" style="ellipse;whiteSpace=wrap;html=1;" vertex="1" parent="WIyWlLk6GJQsqaUBKTNV-1">
          <mxGeometry x="-30" y="110" width="120" height="80" as="geometry" />
        </mxCell>
        <mxCell id="ExjQrbDAAfsEgMbyEyPx-3" style="edgeStyle=orthogonalEdgeStyle;rounded=0;orthogonalLoop=1;jettySize=auto;html=1;exitX=0.5;exitY=1;exitDx=0;exitDy=0;" edge="1" parent="WIyWlLk6GJQsqaUBKTNV-1" source="ExjQrbDAAfsEgMbyEyPx-2">
          <mxGeometry relative="1" as="geometry">
            <mxPoint x="30" y="360" as="targetPoint" />
          </mxGeometry>
        </mxCell>
        <mxCell id="ExjQrbDAAfsEgMbyEyPx-2" value="&lt;div&gt;i=0&lt;br&gt;&lt;/div&gt;&lt;div&gt;pobierz x (liczba potegowana)&lt;br&gt;&lt;/div&gt;&lt;div&gt;pobierz n (potega)&lt;br&gt;&lt;/div&gt;" style="rounded=0;whiteSpace=wrap;html=1;" vertex="1" parent="WIyWlLk6GJQsqaUBKTNV-1">
          <mxGeometry x="-50" y="260" width="160" height="80" as="geometry" />
        </mxCell>
        <mxCell id="ExjQrbDAAfsEgMbyEyPx-11" style="edgeStyle=orthogonalEdgeStyle;rounded=0;orthogonalLoop=1;jettySize=auto;html=1;exitX=0.5;exitY=1;exitDx=0;exitDy=0;" edge="1" parent="WIyWlLk6GJQsqaUBKTNV-1" source="ExjQrbDAAfsEgMbyEyPx-6" target="ExjQrbDAAfsEgMbyEyPx-12">
          <mxGeometry relative="1" as="geometry">
            <mxPoint x="30" y="620" as="targetPoint" />
          </mxGeometry>
        </mxCell>
        <mxCell id="ExjQrbDAAfsEgMbyEyPx-6" value="x * x = a" style="rounded=0;whiteSpace=wrap;html=1;" vertex="1" parent="WIyWlLk6GJQsqaUBKTNV-1">
          <mxGeometry x="-50" y="360" width="160" height="80" as="geometry" />
        </mxCell>
        <mxCell id="ExjQrbDAAfsEgMbyEyPx-10" style="edgeStyle=orthogonalEdgeStyle;rounded=0;orthogonalLoop=1;jettySize=auto;html=1;exitX=0.5;exitY=0;exitDx=0;exitDy=0;" edge="1" parent="WIyWlLk6GJQsqaUBKTNV-1" source="ExjQrbDAAfsEgMbyEyPx-9">
          <mxGeometry relative="1" as="geometry">
            <mxPoint x="-165" y="410" as="targetPoint" />
          </mxGeometry>
        </mxCell>
        <mxCell id="ExjQrbDAAfsEgMbyEyPx-9" value="i + 1" style="rounded=0;whiteSpace=wrap;html=1;" vertex="1" parent="WIyWlLk6GJQsqaUBKTNV-1">
          <mxGeometry x="-250" y="440" width="170" height="100" as="geometry" />
        </mxCell>
        <mxCell id="ExjQrbDAAfsEgMbyEyPx-12" value="a * x " style="rounded=0;whiteSpace=wrap;html=1;" vertex="1" parent="WIyWlLk6GJQsqaUBKTNV-1">
          <mxGeometry x="-50" y="460" width="160" height="80" as="geometry" />
        </mxCell>
        <mxCell id="ExjQrbDAAfsEgMbyEyPx-15" style="edgeStyle=orthogonalEdgeStyle;rounded=0;orthogonalLoop=1;jettySize=auto;html=1;exitX=0;exitY=0.5;exitDx=0;exitDy=0;" edge="1" parent="WIyWlLk6GJQsqaUBKTNV-1" source="ExjQrbDAAfsEgMbyEyPx-14">
          <mxGeometry relative="1" as="geometry">
            <mxPoint x="-270" y="370" as="targetPoint" />
            <Array as="points">
              <mxPoint x="-210" y="370" />
              <mxPoint x="-210" y="370" />
            </Array>
          </mxGeometry>
        </mxCell>
        <mxCell id="ExjQrbDAAfsEgMbyEyPx-18" style="edgeStyle=orthogonalEdgeStyle;rounded=0;orthogonalLoop=1;jettySize=auto;html=1;exitX=1;exitY=0.5;exitDx=0;exitDy=0;" edge="1" parent="WIyWlLk6GJQsqaUBKTNV-1" source="ExjQrbDAAfsEgMbyEyPx-14">
          <mxGeometry relative="1" as="geometry">
            <mxPoint x="30" y="350" as="targetPoint" />
            <Array as="points">
              <mxPoint x="-70" y="370" />
              <mxPoint x="-70" y="350" />
            </Array>
          </mxGeometry>
        </mxCell>
        <mxCell id="ExjQrbDAAfsEgMbyEyPx-14" value="i = n" style="rhombus;whiteSpace=wrap;html=1;" vertex="1" parent="WIyWlLk6GJQsqaUBKTNV-1">
          <mxGeometry x="-205" y="330" width="80" height="80" as="geometry" />
        </mxCell>
        <mxCell id="ExjQrbDAAfsEgMbyEyPx-16" value="&lt;div&gt;&lt;br&gt;&lt;/div&gt;&lt;div&gt;TAK&lt;br&gt;&lt;/div&gt;" style="text;html=1;align=center;verticalAlign=middle;resizable=0;points=[];autosize=1;strokeColor=none;fillColor=none;" vertex="1" parent="WIyWlLk6GJQsqaUBKTNV-1">
          <mxGeometry x="-230" y="340" width="40" height="40" as="geometry" />
        </mxCell>
        <mxCell id="ExjQrbDAAfsEgMbyEyPx-17" value="STOP" style="ellipse;whiteSpace=wrap;html=1;" vertex="1" parent="WIyWlLk6GJQsqaUBKTNV-1">
          <mxGeometry x="-540" y="330" width="120" height="80" as="geometry" />
        </mxCell>
        <mxCell id="ExjQrbDAAfsEgMbyEyPx-19" value="&lt;div&gt;NIE&lt;/div&gt;" style="text;html=1;align=center;verticalAlign=middle;resizable=0;points=[];autosize=1;strokeColor=none;fillColor=none;" vertex="1" parent="WIyWlLk6GJQsqaUBKTNV-1">
          <mxGeometry x="-140" y="345" width="40" height="30" as="geometry" />
        </mxCell>
        <mxCell id="ExjQrbDAAfsEgMbyEyPx-21" style="edgeStyle=orthogonalEdgeStyle;rounded=0;orthogonalLoop=1;jettySize=auto;html=1;exitX=0;exitY=0.5;exitDx=0;exitDy=0;entryX=1;entryY=0.5;entryDx=0;entryDy=0;" edge="1" parent="WIyWlLk6GJQsqaUBKTNV-1" source="ExjQrbDAAfsEgMbyEyPx-20" target="ExjQrbDAAfsEgMbyEyPx-17">
          <mxGeometry relative="1" as="geometry" />
        </mxCell>
        <mxCell id="ExjQrbDAAfsEgMbyEyPx-20" value="wyswietl wynik" style="rounded=0;whiteSpace=wrap;html=1;" vertex="1" parent="WIyWlLk6GJQsqaUBKTNV-1">
          <mxGeometry x="-390" y="340" width="120" height="60" as="geometry" />
        </mxCell>
        <mxCell id="ExjQrbDAAfsEgMbyEyPx-23" style="edgeStyle=orthogonalEdgeStyle;rounded=0;orthogonalLoop=1;jettySize=auto;html=1;exitX=0.5;exitY=1;exitDx=0;exitDy=0;" edge="1" source="ExjQrbDAAfsEgMbyEyPx-24" parent="WIyWlLk6GJQsqaUBKTNV-1">
          <mxGeometry relative="1" as="geometry">
            <mxPoint x="400" y="250" as="targetPoint" />
          </mxGeometry>
        </mxCell>
        <mxCell id="ExjQrbDAAfsEgMbyEyPx-24" value="START" style="ellipse;whiteSpace=wrap;html=1;" vertex="1" parent="WIyWlLk6GJQsqaUBKTNV-1">
          <mxGeometry x="340" y="100" width="120" height="80" as="geometry" />
        </mxCell>
        <mxCell id="ExjQrbDAAfsEgMbyEyPx-26" style="edgeStyle=orthogonalEdgeStyle;rounded=0;orthogonalLoop=1;jettySize=auto;html=1;exitX=0.5;exitY=1;exitDx=0;exitDy=0;" edge="1" parent="WIyWlLk6GJQsqaUBKTNV-1" source="ExjQrbDAAfsEgMbyEyPx-25" target="ExjQrbDAAfsEgMbyEyPx-27">
          <mxGeometry relative="1" as="geometry">
            <mxPoint x="400" y="360" as="targetPoint" />
          </mxGeometry>
        </mxCell>
        <mxCell id="ExjQrbDAAfsEgMbyEyPx-25" value="&lt;div&gt;podaj x i n&lt;/div&gt;&lt;div&gt;wynik = 1&lt;br&gt;&lt;/div&gt;" style="rounded=0;whiteSpace=wrap;html=1;" vertex="1" parent="WIyWlLk6GJQsqaUBKTNV-1">
          <mxGeometry x="340" y="250" width="120" height="60" as="geometry" />
        </mxCell>
        <mxCell id="ExjQrbDAAfsEgMbyEyPx-28" style="edgeStyle=orthogonalEdgeStyle;rounded=0;orthogonalLoop=1;jettySize=auto;html=1;exitX=1;exitY=0.5;exitDx=0;exitDy=0;" edge="1" parent="WIyWlLk6GJQsqaUBKTNV-1" source="ExjQrbDAAfsEgMbyEyPx-27">
          <mxGeometry relative="1" as="geometry">
            <mxPoint x="630" y="390" as="targetPoint" />
          </mxGeometry>
        </mxCell>
        <mxCell id="ExjQrbDAAfsEgMbyEyPx-29" value="NIE" style="edgeLabel;html=1;align=center;verticalAlign=middle;resizable=0;points=[];" vertex="1" connectable="0" parent="ExjQrbDAAfsEgMbyEyPx-28">
          <mxGeometry x="-0.6737" y="-3" relative="1" as="geometry">
            <mxPoint as="offset" />
          </mxGeometry>
        </mxCell>
        <mxCell id="ExjQrbDAAfsEgMbyEyPx-33" style="edgeStyle=orthogonalEdgeStyle;rounded=0;orthogonalLoop=1;jettySize=auto;html=1;exitX=0;exitY=0.5;exitDx=0;exitDy=0;entryX=0.5;entryY=0;entryDx=0;entryDy=0;" edge="1" parent="WIyWlLk6GJQsqaUBKTNV-1" source="ExjQrbDAAfsEgMbyEyPx-27" target="ExjQrbDAAfsEgMbyEyPx-35">
          <mxGeometry relative="1" as="geometry">
            <mxPoint x="270" y="390" as="targetPoint" />
            <Array as="points">
              <mxPoint x="280" y="390" />
            </Array>
          </mxGeometry>
        </mxCell>
        <mxCell id="ExjQrbDAAfsEgMbyEyPx-34" value="TAK" style="edgeLabel;html=1;align=center;verticalAlign=middle;resizable=0;points=[];" vertex="1" connectable="0" parent="ExjQrbDAAfsEgMbyEyPx-33">
          <mxGeometry x="-0.7111" relative="1" as="geometry">
            <mxPoint as="offset" />
          </mxGeometry>
        </mxCell>
        <mxCell id="ExjQrbDAAfsEgMbyEyPx-27" value="n &amp;gt; 0" style="rhombus;whiteSpace=wrap;html=1;" vertex="1" parent="WIyWlLk6GJQsqaUBKTNV-1">
          <mxGeometry x="360" y="350" width="80" height="80" as="geometry" />
        </mxCell>
        <mxCell id="ExjQrbDAAfsEgMbyEyPx-32" style="edgeStyle=orthogonalEdgeStyle;rounded=0;orthogonalLoop=1;jettySize=auto;html=1;exitX=0.5;exitY=1;exitDx=0;exitDy=0;entryX=0.5;entryY=0;entryDx=0;entryDy=0;" edge="1" parent="WIyWlLk6GJQsqaUBKTNV-1" source="ExjQrbDAAfsEgMbyEyPx-30" target="ExjQrbDAAfsEgMbyEyPx-31">
          <mxGeometry relative="1" as="geometry" />
        </mxCell>
        <mxCell id="ExjQrbDAAfsEgMbyEyPx-30" value="wynik" style="rounded=0;whiteSpace=wrap;html=1;" vertex="1" parent="WIyWlLk6GJQsqaUBKTNV-1">
          <mxGeometry x="630" y="360" width="120" height="60" as="geometry" />
        </mxCell>
        <mxCell id="ExjQrbDAAfsEgMbyEyPx-31" value="STOP" style="ellipse;whiteSpace=wrap;html=1;" vertex="1" parent="WIyWlLk6GJQsqaUBKTNV-1">
          <mxGeometry x="630" y="450" width="120" height="80" as="geometry" />
        </mxCell>
        <mxCell id="ExjQrbDAAfsEgMbyEyPx-36" style="edgeStyle=orthogonalEdgeStyle;rounded=0;orthogonalLoop=1;jettySize=auto;html=1;exitX=0;exitY=0.5;exitDx=0;exitDy=0;" edge="1" parent="WIyWlLk6GJQsqaUBKTNV-1" source="ExjQrbDAAfsEgMbyEyPx-35">
          <mxGeometry relative="1" as="geometry">
            <mxPoint x="400" y="330" as="targetPoint" />
            <Array as="points">
              <mxPoint x="200" y="460" />
              <mxPoint x="200" y="330" />
              <mxPoint x="400" y="330" />
            </Array>
          </mxGeometry>
        </mxCell>
        <mxCell id="ExjQrbDAAfsEgMbyEyPx-35" value="&lt;div&gt;wynik = wynik * x&lt;/div&gt;&lt;div&gt;n = n - 1&lt;br&gt;&lt;/div&gt;" style="rounded=0;whiteSpace=wrap;html=1;" vertex="1" parent="WIyWlLk6GJQsqaUBKTNV-1">
          <mxGeometry x="220" y="430" width="120" height="60" as="geometry" />
        </mxCell>
      </root>
    </mxGraphModel>
  </diagram>
</mxfile>
